# xmcd
#
# Track frame offsets: 
#        150
#        13822
#        28580
#        31152
#        44962
#        57085
#        80832
#        94355
#        110287
#        124547
#        140682
#
# Disc length: 2234 seconds
#
# Revision: 2
# Processed by: cddbd v1.5.2PL0 Copyright (c) Steve Scherf et al.
# Submitted via: ExactAudioCopy v1.0b2
#
DISCID=9708b80b
DTITLE=Plastics - Origato Plastico
DYEAR=1990
DGENRE=Techno
TTITLE0=Ignore
TTITLE1=Diamond Head
TTITLE2=No Good
TTITLE3=Good
TTITLE4=Back To Wigtown
TTITLE5=Cards
TTITLE6=Peace
TTITLE7=Dance in the Metal
TTITLE8=Interior
TTITLE9=Park -  Eight Days A Week
TTITLE10=Desolate
EXTD=YEAR: 1990
EXTT0=
EXTT1=
EXTT2=
EXTT3=
EXTT4=
EXTT5=
EXTT6=
EXTT7=
EXTT8=
EXTT9=
EXTT10=
PLAYORDER=
